<?xml version="1.0" encoding="UTF-8" standalone="no"?>
<!-- Created with Inkscape (http://www.inkscape.org/) -->

<svg
   width="16"
   height="16"
   viewBox="0 0 4.2333332 4.2333333"
   version="1.1"
   id="svg301"
   inkscape:version="1.2.1 (9c6d41e4, 2022-07-14)"
   sodipodi:docname="drawing.svg"
   xmlns:inkscape="http://www.inkscape.org/namespaces/inkscape"
   xmlns:sodipodi="http://sodipodi.sourceforge.net/DTD/sodipodi-0.dtd"
   xmlns="http://www.w3.org/2000/svg"
   xmlns:svg="http://www.w3.org/2000/svg">
  <sodipodi:namedview
     id="namedview303"
     pagecolor="#ffffff"
     bordercolor="#000000"
     borderopacity="0.25"
     inkscape:showpageshadow="2"
     inkscape:pageopacity="0.0"
     inkscape:pagecheckerboard="0"
     inkscape:deskcolor="#d1d1d1"
     inkscape:document-units="mm"
     showgrid="false"
     inkscape:zoom="8.8444106"
     inkscape:cx="32.958669"
     inkscape:cy="11.19351"
     inkscape:window-width="1309"
     inkscape:window-height="456"
     inkscape:window-x="0"
     inkscape:window-y="181"
     inkscape:window-maximized="0"
     inkscape:current-layer="layer1"
     showguides="false" />
  <defs
     id="defs298" />
  <g
     inkscape:label="Layer 1"
     inkscape:groupmode="layer"
     id="layer1">
    <path
       class="cls-1"
       d="m 3.5272986,0.75925669 c -0.00856,-0.00896 -0.017164,-0.0178188 -0.026074,-0.0267282 -0.00856,-0.00896 -0.017487,-0.0174866 -0.026728,-0.0260738 C 2.6877515,-0.05318038 1.4508717,-0.06110017 0.6948172,0.69490776 -0.06090594,1.4505835 -0.05331634,2.687382 0.7063642,3.4740764 c 0.008557,0.00896 0.0171644,0.017819 0.0260738,0.026728 0.008557,0.00896 0.0174866,0.017487 0.0267282,0.026074 0.7867461,0.7596353 2.0232947,0.7675551 2.7793491,0.011547 C 4.2942398,2.7827497 4.2866496,1.5459501 3.5269683,0.75925669 Z M 1.2729959,2.3267049 C 1.2195395,2.0514946 1.3053314,1.7479041 1.5267737,1.5268117 1.748211,1.3053888 2.0514918,1.2199211 2.3267197,1.2730501 2.0887825,1.2836106 1.8260942,1.4007553 1.6132371,1.6132688 1.4003802,1.8261114 1.2835574,2.0887832 1.2729959,2.3267049 Z M 2.6204298,2.6203954 C 2.8332858,2.4075528 2.9501096,2.1448812 2.96067,1.9069592 3.0141265,2.1821696 2.9283244,2.4854299 2.7068921,2.7068528 2.485455,2.9282756 2.1818459,3.0137423 1.9069462,2.9606141 2.1448845,2.9500538 2.4075727,2.832909 2.6204298,2.6203954 Z M 1.2571562,1.2572106 C 0.96443678,1.5499105 0.80339114,1.9171885 0.78260054,2.2692872 0.73013073,1.87165 0.85420791,1.458174 1.156173,1.1562336 1.4581321,0.85429312 1.8713056,0.73021813 2.2689688,0.78268585 1.9171774,0.80380661 1.5498748,0.96450974 1.2571562,1.2572106 Z M 2.9765107,2.9764537 C 3.2695603,2.6837537 3.4302747,2.3164757 3.4510663,1.964377 3.5035361,2.3616841 3.379459,2.7751601 3.0774939,3.0771005 2.7755337,3.3790411 2.3623602,3.5031169 1.9650284,3.4509785 2.3168197,3.4298577 2.6837921,3.2688244 2.9765107,2.9764537 Z M 0.80768174,0.80743481 C 1.2310844,0.38405892 1.8181734,0.2207142 2.3762217,0.31509122 1.8874764,0.33291 1.3713386,0.55301302 0.96212637,0.96187015 0.55291328,1.3710564 0.33312604,1.8868301 0.31530524,2.3758737 0.22092605,1.8178614 0.38394281,1.2304814 0.80768174,0.8071056 Z M 3.4266456,3.4262296 C 3.0029116,3.8499357 2.4154925,4.0129502 1.8571151,3.9182429 2.3461905,3.9004242 2.8626566,3.6809805 3.2722,3.271464 3.6814133,2.8622776 3.9012002,2.3465049 3.9190209,1.8574604 4.013404,2.4154726 3.8503793,3.0028527 3.4269747,3.4262296 Z"
       id="path174"
       style="fill:#3389ff;stroke-width:0.033" />
  </g>
</svg>
